<mxfile host="Electron" agent="Mozilla/5.0 (X11; Linux x86_64) AppleWebKit/537.36 (KHTML, like Gecko) draw.io/26.0.9 Chrome/128.0.6613.186 Electron/32.2.5 Safari/537.36" version="26.0.9">
  <diagram name="Page-1" id="8SHh7Jayu_wu29LmuWKs">
    <mxGraphModel dx="779" dy="482" grid="1" gridSize="10" guides="1" tooltips="1" connect="1" arrows="1" fold="1" page="1" pageScale="1" pageWidth="827" pageHeight="1169" math="0" shadow="0">
      <root>
        <mxCell id="0" />
        <mxCell id="1" parent="0" />
        <mxCell id="efjq1uwPEhnhvDtp55dE-2" value="" style="rounded=1;whiteSpace=wrap;html=1;strokeColor=#B3B3B3;" vertex="1" parent="1">
          <mxGeometry x="250" y="510" width="350" height="60" as="geometry" />
        </mxCell>
        <mxCell id="efjq1uwPEhnhvDtp55dE-3" value="&lt;font style=&quot;color: rgb(0, 204, 0); font-size: 19px;&quot;&gt;17%&lt;/font&gt;" style="text;html=1;align=center;verticalAlign=middle;resizable=0;points=[];autosize=1;strokeColor=none;fillColor=none;" vertex="1" parent="1">
          <mxGeometry x="250" y="510" width="60" height="40" as="geometry" />
        </mxCell>
        <mxCell id="efjq1uwPEhnhvDtp55dE-4" value="&lt;font style=&quot;color: rgb(0, 204, 0); font-size: 19px;&quot;&gt;31%&lt;/font&gt;" style="text;html=1;align=center;verticalAlign=middle;resizable=0;points=[];autosize=1;strokeColor=none;fillColor=none;" vertex="1" parent="1">
          <mxGeometry x="335" y="510" width="60" height="40" as="geometry" />
        </mxCell>
        <mxCell id="efjq1uwPEhnhvDtp55dE-5" value="&lt;font style=&quot;color: rgb(0, 204, 0); font-size: 19px;&quot;&gt;23 KB/s&lt;/font&gt;" style="text;html=1;align=center;verticalAlign=middle;resizable=0;points=[];autosize=1;strokeColor=none;fillColor=none;" vertex="1" parent="1">
          <mxGeometry x="430" y="520" width="90" height="40" as="geometry" />
        </mxCell>
        <mxCell id="efjq1uwPEhnhvDtp55dE-6" value="&lt;font style=&quot;color: rgb(0, 204, 0); font-size: 19px;&quot;&gt;3 MB/s&lt;/font&gt;" style="text;html=1;align=center;verticalAlign=middle;resizable=0;points=[];autosize=1;strokeColor=none;fillColor=none;" vertex="1" parent="1">
          <mxGeometry x="520" y="520" width="80" height="40" as="geometry" />
        </mxCell>
        <mxCell id="efjq1uwPEhnhvDtp55dE-7" value="" style="endArrow=none;html=1;rounded=0;exitX=0.182;exitY=0.981;exitDx=0;exitDy=0;exitPerimeter=0;entryX=0.181;entryY=0.029;entryDx=0;entryDy=0;entryPerimeter=0;strokeColor=#999999;" edge="1" parent="1">
          <mxGeometry width="50" height="50" relative="1" as="geometry">
            <mxPoint x="310.39000000000004" y="570" as="sourcePoint" />
            <mxPoint x="309.99999999999994" y="512.8799999999999" as="targetPoint" />
          </mxGeometry>
        </mxCell>
        <mxCell id="efjq1uwPEhnhvDtp55dE-8" value="" style="endArrow=none;html=1;rounded=0;exitX=0.523;exitY=0.023;exitDx=0;exitDy=0;exitPerimeter=0;strokeColor=#999999;" edge="1" parent="1">
          <mxGeometry width="50" height="50" relative="1" as="geometry">
            <mxPoint x="429.99999999999994" y="510.69" as="sourcePoint" />
            <mxPoint x="409.88" y="569.31" as="targetPoint" />
          </mxGeometry>
        </mxCell>
        <mxCell id="efjq1uwPEhnhvDtp55dE-10" value="" style="endArrow=none;html=1;rounded=0;exitX=0.644;exitY=1.023;exitDx=0;exitDy=0;exitPerimeter=0;entryX=0.181;entryY=0.029;entryDx=0;entryDy=0;entryPerimeter=0;strokeColor=#333333;fillColor=#008a00;" edge="1" parent="1">
          <mxGeometry width="50" height="50" relative="1" as="geometry">
            <mxPoint x="514" y="571.38" as="sourcePoint" />
            <mxPoint x="514.88" y="510" as="targetPoint" />
          </mxGeometry>
        </mxCell>
        <mxCell id="efjq1uwPEhnhvDtp55dE-11" value="CPU" style="text;html=1;align=center;verticalAlign=middle;resizable=0;points=[];autosize=1;strokeColor=none;fillColor=none;" vertex="1" parent="1">
          <mxGeometry x="255" y="540" width="50" height="30" as="geometry" />
        </mxCell>
        <mxCell id="efjq1uwPEhnhvDtp55dE-12" value="RAM" style="text;html=1;align=center;verticalAlign=middle;resizable=0;points=[];autosize=1;strokeColor=none;fillColor=none;" vertex="1" parent="1">
          <mxGeometry x="340" y="540" width="50" height="30" as="geometry" />
        </mxCell>
      </root>
    </mxGraphModel>
  </diagram>
</mxfile>
